<?xml version="1.0" encoding="utf-8"?>
<svg id="master-artboard" viewBox="0 0 284.23992919921875 207.72108459472656" version="1.1" xmlns="http://www.w3.org/2000/svg" x="0px" y="0px" width="284.23992919921875px" height="207.72108459472656px" enable-background="new 0 0 841.9 595.3"><rect id="ee-background" x="0" y="0" width="284.23992919921875" height="207.72108459472656" style="fill: white; fill-opacity: 0; pointer-events: none;"/>

<path fill="#44C8F5" d="M413.6,153.1c-35.5,0-65,33.4-70.5,77.2c-1,7.9,5.2,14.8,13.2,14.8h114.6c8,0,14.2-7,13.2-14.8&#10;&#9;&#9;&#9;&#9;C478.6,186.5,449.1,153.1,413.6,153.1z" transform="matrix(1, 0, 0, 1, -262.68784379959106, -79.45368957519531)"/><path fill="#44C8F5" d="M413.6,153.1c-35.5,0-65,33.4-70.5,77.2c-1,7.9,5.2,14.8,13.2,14.8h114.6c8,0,14.2-7,13.2-14.8&#10;&#9;&#9;&#9;&#9;C478.6,186.5,449.1,153.1,413.6,153.1z" transform="matrix(1, 0, 0, 1, -262.68784379959106, -79.45368957519531)"/><path fill="#27AAE1" d="M484.1,230.3c-5.5-43.8-35-77.2-70.5-77.2c25,0,45.7,33.4,49.6,77.2c0.7,7.9-3.7,14.8-9.3,14.8h17&#10;&#9;&#9;&#9;&#9;&#9;C478.8,245.1,485.1,238.2,484.1,230.3z" transform="matrix(1, 0, 0, 1, -262.68784379959106, -79.45368957519531)"/><path fill="#9ADBF9" d="M343.1,230.3c-1,7.9,5.2,14.8,13.2,14.8h17c-5.6,0-10-7-9.3-14.8c3.9-43.8,24.6-77.2,49.6-77.2&#10;&#9;&#9;&#9;&#9;&#9;C378.1,153.1,348.6,186.5,343.1,230.3z" transform="matrix(1, 0, 0, 1, -262.68784379959106, -79.45368957519531)"/><path fill="#282F39" d="M470.9,248.4H356.3c-4.8,0-9.3-2.1-12.5-5.6c-3.1-3.5-4.6-8.3-4-12.9c5.8-46.4,36.9-80.1,73.8-80.1&#10;&#9;&#9;&#9;&#9;s67.9,33.7,73.8,80.1c0.6,4.7-0.9,9.4-4,12.9C480.2,246.4,475.6,248.4,470.9,248.4z M413.6,156.4c-33.5,0-61.8,31.2-67.2,74.3&#10;&#9;&#9;&#9;&#9;c-0.4,2.8,0.5,5.6,2.4,7.7c1.9,2.2,4.6,3.4,7.5,3.4h114.6c2.9,0,5.6-1.2,7.5-3.4c1.9-2.2,2.7-4.9,2.4-7.7&#10;&#9;&#9;&#9;&#9;C475.4,187.7,447.1,156.4,413.6,156.4z" transform="matrix(1, 0, 0, 1, -262.68784379959106, -79.45368957519531)"/><path fill="#282F39" d="M470.9,248.4H356.3c-4.8,0-9.3-2.1-12.5-5.6c-3.1-3.5-4.6-8.3-4-12.9c5.8-46.4,36.9-80.1,73.8-80.1&#10;&#9;&#9;&#9;&#9;s67.9,33.7,73.8,80.1c0.6,4.7-0.9,9.4-4,12.9C480.2,246.4,475.6,248.4,470.9,248.4z M413.6,156.4c-33.5,0-61.8,31.2-67.2,74.3&#10;&#9;&#9;&#9;&#9;c-0.4,2.8,0.5,5.6,2.4,7.7c1.9,2.2,4.6,3.4,7.5,3.4h114.6c2.9,0,5.6-1.2,7.5-3.4c1.9-2.2,2.7-4.9,2.4-7.7&#10;&#9;&#9;&#9;&#9;C475.4,187.7,447.1,156.4,413.6,156.4z" transform="matrix(1, 0, 0, 1, -262.68784379959106, -79.45368957519531)"/><path fill="#38404F" d="M632.8,498.3L632.8,498.3c0-5.5,4.5-10,10-10H706c5.5,0,10,4.5,10,10l0,0H632.8z" transform="matrix(0.6192218661308289, 0, 0, 0.6192218661308289, -364.8343586921692, -112.0587387084961)"/><path d="M 652.599976 465.799988 H 696.099976 V 488.399988 H 652.599976 V 465.799988 Z" fill="#38404F" transform="matrix(0.6192218661308289, 0, 0, 0.6192218661308289, -364.8343586921692, -112.0587387084961)"/><path fill="#38404F" d="M594.7,367.9v91.2c0,3.7,3,6.6,6.6,6.6h146c3.7,0,6.6-3,6.6-6.6v-91.2c0-3.7-3-6.6-6.6-6.6h-146&#10;&#9;&#9;&#9;&#9;C597.7,361.3,594.7,364.3,594.7,367.9z" transform="matrix(0.6192218661308289, 0, 0, 0.6192218661308289, -364.8343586921692, -112.0587387084961)"/><path fill="#2E3644" d="M736.8,361.3v105.8h10.5c3.7,0,6.6-3,6.6-6.6v-92.5c0-3.7-3-6.6-6.6-6.6H736.8z" transform="matrix(0.6192218661308289, 0, 0, 0.6192218661308289, -364.8343586921692, -112.0587387084961)"/><path fill="#555866" d="M611.9,361.3v105.8h-10.5c-3.7,0-6.6-3-6.6-6.6v-92.5c0-3.7,3-6.6,6.6-6.6H611.9z" transform="matrix(0.6192218661308289, 0, 0, 0.6192218661308289, -364.8343586921692, -112.0587387084961)"/><path fill="#282F39" d="M747.4,469.1h-146c-5.5,0-10-4.5-10-10v-91.2c0-5.5,4.5-10,10-10h146c5.5,0,10,4.5,10,10v91.2&#10;&#9;&#9;&#9;&#9;C757.3,464.7,752.9,469.1,747.4,469.1z M601.3,364.6c-1.8,0-3.3,1.5-3.3,3.3v91.2c0,1.8,1.5,3.3,3.3,3.3h146&#10;&#9;&#9;&#9;&#9;c1.8,0,3.3-1.5,3.3-3.3v-91.2c0-1.8-1.5-3.3-3.3-3.3H601.3z" transform="matrix(0.6192218661308289, 0, 0, 0.6192218661308289, -364.8343586921692, -112.0587387084961)"/><path fill="#282F39" d="M696.1,491.7h-43.5c-1.8,0-3.3-1.5-3.3-3.3v-22.6c0-1.8,1.5-3.3,3.3-3.3h43.5c1.8,0,3.3,1.5,3.3,3.3v22.6&#10;&#9;&#9;&#9;&#9;C699.4,490.2,697.9,491.7,696.1,491.7z M655.9,485.1h36.8v-15.9h-36.8V485.1z" transform="matrix(0.6192218661308289, 0, 0, 0.6192218661308289, -364.8343586921692, -112.0587387084961)"/><path fill="#282F39" d="M715.9,501.7h-83.1c-1.8,0-3.3-1.5-3.3-3.3c0-7.3,6-13.3,13.3-13.3H706c7.3,0,13.3,6,13.3,13.3&#10;&#9;&#9;&#9;&#9;C719.2,500.2,717.7,501.7,715.9,501.7z M637,495h74.7c-1.1-2-3.3-3.3-5.7-3.3h-63.2C640.3,491.7,638.1,493,637,495z" transform="matrix(0.6192218661308289, 0, 0, 0.6192218661308289, -364.8343586921692, -112.0587387084961)"/><path d="M 594.700012 376.200012 H 754.000015 V 452.200012 H 594.700012 V 376.200012 Z" fill="#8ED8F8" transform="matrix(0.6192218661308289, 0, 0, 0.6192218661308289, -364.8343586921692, -112.0587387084961)"/><path d="M 736.799988 376.200012 H 753.999989 V 452.200012 H 736.799988 V 376.200012 Z" fill="#44C8F5" transform="matrix(0.6192218661308289, 0, 0, 0.6192218661308289, -364.8343586921692, -112.0587387084961)"/><path d="M 595.099976 376.200012 H 612.299976 V 452.200012 H 595.099976 V 376.200012 Z" fill="#BCE6FB" transform="matrix(0.6192218661308289, 0, 0, 0.6192218661308289, -364.8343586921692, -112.0587387084961)"/><path fill="#282F39" d="M754,455.5H594.7c-1.8,0-3.3-1.5-3.3-3.3v-76c0-1.8,1.5-3.3,3.3-3.3H754c1.8,0,3.3,1.5,3.3,3.3v76&#10;&#9;&#9;&#9;&#9;C757.3,454,755.8,455.5,754,455.5z M598,448.9h152.7v-69.4H598V448.9z" transform="matrix(0.6192218661308289, 0, 0, 0.6192218661308289, -364.8343586921692, -112.0587387084961)"/><g transform="matrix(0.6192218661308289, 0, 0, 0.6192218661308289, -364.8343586921692, -112.0587387084961)">
					<path fill="#FFFFFF" d="M607,396.5L607,396.5c-1.8,0-3.3-1.5-3.3-3.3v-3c0-1.8,1.5-3.3,3.3-3.3l0,0c1.8,0,3.3,1.5,3.3,3.3v3&#10;&#9;&#9;&#9;&#9;&#9;&#9;C610.4,395,608.9,396.5,607,396.5z"/>
				</g><path fill="#FFFFFF" d="M607,422L607,422c-1.8,0-3.3-1.5-3.3-3.3v-14c0-1.8,1.5-3.3,3.3-3.3l0,0c1.8,0,3.3,1.5,3.3,3.3v14&#10;&#9;&#9;&#9;&#9;&#9;&#9;C610.4,420.5,608.9,422,607,422z" transform="matrix(0.6192218661308289, 0, 0, 0.6192218661308289, -364.8343586921692, -112.0587387084961)"/><path fill="#FFFFFF" d="M617.3,393.5v10.4c0,3.7,3,6.6,6.6,6.6h10.4c3.7,0,6.6-3,6.6-6.6v-10.4c0-3.7-3-6.6-6.6-6.6h-10.4&#10;&#9;&#9;&#9;&#9;&#9;C620.2,386.8,617.3,389.8,617.3,393.5z" transform="matrix(0.6192218661308289, 0, 0, 0.6192218661308289, -364.8343586921692, -112.0587387084961)"/><path fill="#FFFFFF" d="M662.5,393.5v10.4c0,3.7,3,6.6,6.6,6.6h10.4c3.7,0,6.6-3,6.6-6.6v-10.4c0-3.7-3-6.6-6.6-6.6h-10.4&#10;&#9;&#9;&#9;&#9;&#9;C665.5,386.8,662.5,389.8,662.5,393.5z" transform="matrix(0.6192218661308289, 0, 0, 0.6192218661308289, -364.8343586921692, -112.0587387084961)"/><path fill="#FFFFFF" d="M707.7,393.5v10.4c0,3.7,3,6.6,6.6,6.6h10.4c3.7,0,6.6-3,6.6-6.6v-10.4c0-3.7-3-6.6-6.6-6.6h-10.4&#10;&#9;&#9;&#9;&#9;&#9;C710.7,386.8,707.7,389.8,707.7,393.5z" transform="matrix(0.6192218661308289, 0, 0, 0.6192218661308289, -364.8343586921692, -112.0587387084961)"/><path fill="#FFFFFF" d="M617.3,423.6V434c0,3.7,3,6.6,6.6,6.6h10.4c3.7,0,6.6-3,6.6-6.6v-10.4c0-3.7-3-6.6-6.6-6.6h-10.4&#10;&#9;&#9;&#9;&#9;&#9;C620.2,417,617.3,419.9,617.3,423.6z" transform="matrix(0.6192218661308289, 0, 0, 0.6192218661308289, -364.8343586921692, -112.0587387084961)"/><path fill="#FFFFFF" d="M662.5,423.6V434c0,3.7,3,6.6,6.6,6.6h10.4c3.7,0,6.6-3,6.6-6.6v-10.4c0-3.7-3-6.6-6.6-6.6h-10.4&#10;&#9;&#9;&#9;&#9;&#9;C665.5,417,662.5,419.9,662.5,423.6z" transform="matrix(0.6192218661308289, 0, 0, 0.6192218661308289, -364.8343586921692, -112.0587387084961)"/><path fill="#FFFFFF" d="M707.7,423.6V434c0,3.7,3,6.6,6.6,6.6h10.4c3.7,0,6.6-3,6.6-6.6v-10.4c0-3.7-3-6.6-6.6-6.6h-10.4&#10;&#9;&#9;&#9;&#9;&#9;C710.7,417,707.7,419.9,707.7,423.6z" transform="matrix(0.6192218661308289, 0, 0, 0.6192218661308289, -364.8343586921692, -112.0587387084961)"/><path d="M 674.2999877929688 398.70001220703125 L 678.7000122070312 410.6000061035156 L 680.7999877929688 407.29998779296875 L 687.9000244140625 414.5 L 689 413.3999938964844 L 690.2000122070312 412.29998779296875 L 683 405.1000061035156 L 686.2999877929688 403 Z" fill="#38404F" transform="matrix(0.6192218661308289, 0, 0, 0.6192218661308289, -364.8343586921692, -112.0587387084961)"/><path d="M 662.5 366.899994 H 686.200001 V 370.899994 H 662.5 V 366.899994 Z" fill="#FFFFFF" transform="matrix(0.6192218661308289, 0, 0, 0.6192218661308289, -364.8343586921692, -112.0587387084961)"/><path fill="#FFDE17" d="M418.1,182.8h-4.5H409c0,0-6.1,23.5-6.1,36.4c0,12.9,10.6,18.8,10.6,18.8s10.6-5.9,10.6-18.8&#10;&#9;&#9;&#9;&#9;C424.2,206.3,418.1,182.8,418.1,182.8z" transform="matrix(1, 0, 0, 1, -262.68784379959106, -79.45368957519531)"/><path fill="#282F39" d="M413.6,241.2c-0.6,0-1.1-0.1-1.6-0.4c-0.5-0.3-12.3-7-12.3-21.7c0-13.1,5.9-36.2,6.2-37.2&#10;&#9;&#9;&#9;&#9;c0.4-1.5,1.7-2.5,3.2-2.5h9.1c1.5,0,2.8,1,3.2,2.5c0.3,1,6.2,24,6.2,37.2c0,14.7-11.8,21.4-12.3,21.7&#10;&#9;&#9;&#9;&#9;C414.7,241.1,414.1,241.2,413.6,241.2z M411.6,186.1c-1.5,6.3-5.3,23.1-5.3,33c0,7.9,4.7,12.7,7.3,14.7c2.6-2,7.3-6.8,7.3-14.7&#10;&#9;&#9;&#9;&#9;c0-9.9-3.8-26.7-5.3-33H411.6z" transform="matrix(1, 0, 0, 1, -262.68784379959106, -79.45368957519531)"/><path fill="#FFDE17" d="M413.6,185c8.4,0,15.1-8.7,15.1-19.5h-30.3C398.4,176.2,405.2,185,413.6,185z" transform="matrix(1, 0, 0, 1, -262.68784379959106, -79.45368957519531)"/><path fill="#282F39" d="M413.6,188.3c-10.2,0-18.5-10.2-18.5-22.8c0-1.8,1.5-3.3,3.3-3.3h30.3c1.8,0,3.3,1.5,3.3,3.3&#10;&#9;&#9;&#9;&#9;&#9;C432,178,423.8,188.3,413.6,188.3z M402,168.8c1.1,7.3,5.9,12.9,11.6,12.9s10.4-5.5,11.6-12.9H402z" transform="matrix(1, 0, 0, 1, -262.68784379959106, -79.45368957519531)"/><path fill="#282F39" d="M392.8,183.2c-8.4,0-16.1-5.3-20.5-14.3c-0.7-1.4-0.3-3.1,0.9-4c12-9.9,26-15.1,40.3-15.1&#10;&#9;&#9;&#9;&#9;c1.8,0,3.3,1.5,3.3,3.3C416.9,169.7,406.1,183.2,392.8,183.2z M379.6,168.3c3.3,5.2,8.1,8.2,13.2,8.2c8.7,0,16-8.7,17.2-20&#10;&#9;&#9;&#9;&#9;C399.4,157.3,388.9,161.3,379.6,168.3z" transform="matrix(1, 0, 0, 1, -262.68784379959106, -79.45368957519531)"/><path fill="#282F39" d="M434.3,183.2c-13.3,0-24.1-13.5-24.1-30c0-1.8,1.5-3.3,3.3-3.3c14.3,0,28.3,5.2,40.3,15.1&#10;&#9;&#9;&#9;&#9;c1.2,1,1.6,2.7,0.9,4C450.4,177.8,442.7,183.2,434.3,183.2z M417.1,156.5c1.2,11.3,8.5,20,17.2,20c5.1,0,9.9-3,13.2-8.2&#10;&#9;&#9;&#9;&#9;C438.2,161.3,427.8,157.3,417.1,156.5z" transform="matrix(1, 0, 0, 1, -262.68784379959106, -79.45368957519531)"/><path fill="#44C8F5" d="M392.8,179.8c11.5,0,20.7-12,20.7-26.7c-14.1,0-27.2,5.3-38.2,14.3C379,174.9,385.5,179.8,392.8,179.8z" transform="matrix(1, 0, 0, 1, -262.68784379959106, -79.45368957519531)"/><path fill="#282F39" d="M392.8,183.2c-8.4,0-16.1-5.3-20.5-14.3c-0.7-1.4-0.3-3.1,0.9-4c12-9.9,26-15.1,40.3-15.1&#10;&#9;&#9;&#9;&#9;c1.8,0,3.3,1.5,3.3,3.3C416.9,169.7,406.1,183.2,392.8,183.2z M379.6,168.3c3.3,5.2,8.1,8.2,13.2,8.2c8.7,0,16-8.7,17.2-20&#10;&#9;&#9;&#9;&#9;C399.4,157.3,388.9,161.3,379.6,168.3z" transform="matrix(1, 0, 0, 1, -262.68784379959106, -79.45368957519531)"/><path fill="#44C8F5" d="M434.3,179.8c7.4,0,13.8-5,17.5-12.4c-11.1-9.1-24.2-14.3-38.2-14.3C413.6,167.9,422.9,179.8,434.3,179.8&#10;&#9;&#9;&#9;&#9;z" transform="matrix(1, 0, 0, 1, -262.68784379959106, -79.45368957519531)"/><path fill="#282F39" d="M434.3,183.2c-13.3,0-24.1-13.5-24.1-30c0-1.8,1.5-3.3,3.3-3.3c14.3,0,28.3,5.2,40.3,15.1&#10;&#9;&#9;&#9;&#9;c1.2,1,1.6,2.7,0.9,4C450.4,177.8,442.7,183.2,434.3,183.2z M417.1,156.5c1.2,11.3,8.5,20,17.2,20c5.1,0,9.9-3,13.2-8.2&#10;&#9;&#9;&#9;&#9;C438.2,161.3,427.8,157.3,417.1,156.5z" transform="matrix(1, 0, 0, 1, -262.68784379959106, -79.45368957519531)"/><path d="M 453.400005 125.599998 A 39.799999 39.799999 0 0 1 413.600006 165.399998 A 39.799999 39.799999 0 0 1 373.800007 125.599998 A 39.799999 39.799999 0 0 1 413.600006 85.799999 A 39.799999 39.799999 0 0 1 453.400005 125.599998 Z" fill="#FDC78E" transform="matrix(1, 0, 0, 1, -262.68784379959106, -79.45368957519531)"/><path fill="#282F39" d="M413.6,168.8c-23.8,0-43.1-19.4-43.1-43.1s19.4-43.1,43.1-43.1s43.1,19.4,43.1,43.1&#10;&#9;&#9;&#9;&#9;S437.4,168.8,413.6,168.8z M413.6,89.1c-20.1,0-36.5,16.4-36.5,36.5s16.4,36.5,36.5,36.5s36.5-16.4,36.5-36.5&#10;&#9;&#9;&#9;&#9;S433.7,89.1,413.6,89.1z" transform="matrix(1, 0, 0, 1, -262.68784379959106, -79.45368957519531)"/><g transform="matrix(1, 0, 0, 1, -262.68784379959106, -79.45368957519531)">
					<path fill="#FFFFFF" d="M384.4,119.7c0.8-6.3,3.8-12.2,8.3-16.6c1.4-1.4,3.7-1.2,4.8,0.4l0,0c1,1.3,0.9,3.1-0.3,4.2&#10;&#9;&#9;&#9;&#9;&#9;&#9;c-3.5,3.5-5.8,8.1-6.5,13c-0.2,1.6-1.6,2.8-3.2,2.8h0C385.7,123.4,384.2,121.7,384.4,119.7z"/>
				</g><path fill="#FFFFFF" d="M403.1,100.3L403.1,100.3c-0.8-1.9,0.3-3.9,2.1-4.4c1.2-0.3,2.4-0.6,3.7-0.7c1.9-0.2,3.6,1.2,3.6,3.2&#10;&#9;&#9;&#9;&#9;&#9;&#9;c0,0,0,0.1,0,0.1c0,1.6-1.2,2.9-2.7,3.1c-1,0.1-2,0.3-2.9,0.6C405.3,102.6,403.7,101.8,403.1,100.3z" transform="matrix(1, 0, 0, 1, -262.68784379959106, -79.45368957519531)"/><path fill="#F15A29" d="M594.7,128.5v41.2c0,3.7,3,6.6,6.6,6.6h146c3.7,0,6.6-3,6.6-6.6v-41.2c0-3.7-3-6.6-6.6-6.6h-146&#10;&#9;&#9;&#9;&#9;C597.7,121.8,594.7,124.8,594.7,128.5z" transform="matrix(0.6701455116271973, 0, 0, 0.6701455116271973, -228.58087968826294, 63.1754150390625)"/><path fill="#F79433" d="M607.8,169.6v-41.2c0-3.7,3-6.6,6.6-6.6h-13.1c-3.7,0-6.6,3-6.6,6.6v41.2c0,3.7,3,6.6,6.6,6.6h13.1&#10;&#9;&#9;&#9;&#9;C610.8,176.3,607.8,173.3,607.8,169.6z" transform="matrix(0.6701455116271973, 0, 0, 0.6701455116271973, -228.58087968826294, 63.1754150390625)"/><path fill="#D14E23" d="M747.4,121.8h-22.2c3.7,0,6.6,3,6.6,6.6v41.2c0,3.7-3,6.6-6.6,6.6h22.2c3.7,0,6.6-3,6.6-6.6v-41.2&#10;&#9;&#9;&#9;&#9;C754,124.8,751,121.8,747.4,121.8z" transform="matrix(0.6701455116271973, 0, 0, 0.6701455116271973, -228.58087968826294, 63.1754150390625)"/><path fill="#282F39" d="M747.4,179.6h-146c-5.5,0-10-4.5-10-10v-41.2c0-5.5,4.5-10,10-10h146c5.5,0,10,4.5,10,10v41.2&#10;&#9;&#9;&#9;&#9;C757.3,175.1,752.9,179.6,747.4,179.6z M601.3,125.1c-1.8,0-3.3,1.5-3.3,3.3v41.2c0,1.8,1.5,3.3,3.3,3.3h146&#10;&#9;&#9;&#9;&#9;c1.8,0,3.3-1.5,3.3-3.3v-41.2c0-1.8-1.5-3.3-3.3-3.3H601.3z" transform="matrix(0.6701455116271973, 0, 0, 0.6701455116271973, -228.58087968826294, 63.1754150390625)"/><path fill="#FFFFFF" d="M651,136.6v16.6c0,1.4-0.1,2.7-0.2,3.7c-0.1,1-0.4,2-0.8,3.1c-0.7,1.7-1.9,3.1-3.6,4.1&#10;&#9;&#9;&#9;&#9;&#9;c-1.7,1-3.7,1.5-6,1.5c-2.1,0-3.9-0.3-5.4-1c-1.4-0.7-2.6-1.8-3.5-3.3c-0.5-0.8-0.8-1.7-1.1-2.8c-0.3-1-0.4-2-0.4-3&#10;&#9;&#9;&#9;&#9;&#9;c0-1,0.3-1.8,0.8-2.3c0.6-0.5,1.3-0.8,2.2-0.8c0.8,0,1.5,0.2,1.9,0.7c0.4,0.5,0.8,1.3,1,2.3c0.2,1.1,0.5,2,0.7,2.7&#10;&#9;&#9;&#9;&#9;&#9;c0.2,0.7,0.7,1.2,1.2,1.7c0.6,0.5,1.4,0.7,2.5,0.7c2.8,0,4.3-2.1,4.3-6.2v-17.5c0-1.3,0.3-2.3,0.9-2.9c0.6-0.6,1.3-1,2.3-1&#10;&#9;&#9;&#9;&#9;&#9;c1,0,1.8,0.3,2.4,1C650.7,134.3,651,135.3,651,136.6z" transform="matrix(0.6701455116271973, 0, 0, 0.6701455116271973, -228.58087968826294, 63.1754150390625)"/><path fill="#FFFFFF" d="M671.9,132.7c3.3,0,6.1,0.7,8.4,2c2.4,1.3,4.1,3.2,5.3,5.7c1.2,2.5,1.8,5.3,1.8,8.6c0,2.4-0.3,4.7-1,6.7&#10;&#9;&#9;&#9;&#9;&#9;c-0.7,2-1.7,3.7-3,5.2c-1.3,1.5-2.9,2.6-4.9,3.4c-1.9,0.8-4.1,1.2-6.6,1.2c-2.5,0-4.7-0.4-6.6-1.2c-2-0.8-3.6-1.9-4.9-3.4&#10;&#9;&#9;&#9;&#9;&#9;c-1.3-1.5-2.3-3.2-3-5.2c-0.7-2-1-4.3-1-6.6c0-2.4,0.3-4.7,1-6.7c0.7-2,1.7-3.8,3-5.2s2.9-2.5,4.8-3.3&#10;&#9;&#9;&#9;&#9;&#9;C667.3,133.1,669.5,132.7,671.9,132.7z M681,149c0-2.3-0.4-4.3-1.1-6c-0.7-1.7-1.8-3-3.2-3.9c-1.4-0.9-3-1.3-4.8-1.3&#10;&#9;&#9;&#9;&#9;&#9;c-1.3,0-2.5,0.2-3.5,0.7c-1.1,0.5-2,1.2-2.8,2.1c-0.8,0.9-1.4,2.1-1.9,3.5c-0.5,1.4-0.7,3-0.7,4.8c0,1.8,0.2,3.4,0.7,4.9&#10;&#9;&#9;&#9;&#9;&#9;c0.5,1.5,1.1,2.7,1.9,3.6c0.8,1,1.8,1.7,2.8,2.1c1.1,0.5,2.2,0.7,3.5,0.7c1.6,0,3.1-0.4,4.5-1.2c1.4-0.8,2.5-2.1,3.3-3.8&#10;&#9;&#9;&#9;&#9;&#9;C680.6,153.6,681,151.5,681,149z" transform="matrix(0.6701455116271973, 0, 0, 0.6701455116271973, -228.58087968826294, 63.1754150390625)"/><path fill="#FFFFFF" d="M706.5,164.9h-9.7c-1.4,0-2.4-0.3-3-0.9c-0.6-0.6-0.9-1.6-0.9-3v-23.8c0-1.4,0.3-2.4,0.9-3&#10;&#9;&#9;&#9;&#9;&#9;c0.6-0.6,1.6-0.9,3-0.9h10.2c1.5,0,2.8,0.1,3.9,0.3c1.1,0.2,2.1,0.5,3,1.1c0.7,0.4,1.4,1,2,1.7c0.6,0.7,1,1.4,1.3,2.3&#10;&#9;&#9;&#9;&#9;&#9;c0.3,0.8,0.5,1.7,0.5,2.6c0,3.2-1.6,5.5-4.7,6.9c4.2,1.3,6.2,3.9,6.2,7.7c0,1.8-0.5,3.4-1.4,4.8c-0.9,1.4-2.1,2.5-3.7,3.1&#10;&#9;&#9;&#9;&#9;&#9;c-1,0.4-2.1,0.7-3.3,0.9C709.6,164.8,708.1,164.9,706.5,164.9z M699.3,138v8.2h5.9c1.6,0,2.8-0.2,3.7-0.5c0.9-0.3,1.5-0.9,2-1.7&#10;&#9;&#9;&#9;&#9;&#9;c0.4-0.6,0.5-1.3,0.5-2c0-1.6-0.6-2.7-1.7-3.2c-1.1-0.5-2.9-0.8-5.2-0.8H699.3z M706,150.8h-6.7v9.2h6.9c4.3,0,6.5-1.6,6.5-4.7&#10;&#9;&#9;&#9;&#9;&#9;c0-1.6-0.6-2.8-1.7-3.5C709.9,151.2,708.2,150.8,706,150.8z" transform="matrix(0.6701455116271973, 0, 0, 0.6701455116271973, -228.58087968826294, 63.1754150390625)"/><path d="M 700.0999755859375 164.6999969482422 L 712.2999877929688 198.1999969482422 L 718.2999877929688 189.10000610351562 L 738.2999877929688 209.10000610351562 L 741.4000244140625 206 L 744.5 202.89999389648438 L 724.5 182.8000030517578 L 733.5999755859375 176.8000030517578 Z" fill="#FFFFFF" transform="matrix(0.6701455116271973, 0, 0, 0.6701455116271973, -228.58087968826294, 63.1754150390625)"/><path fill="#282F39" d="M738.3,212.4c-0.8,0-1.7-0.3-2.3-1l-17.1-17.1L715,200c-0.7,1-1.9,1.6-3.2,1.5c-1.2-0.1-2.3-1-2.7-2.2&#10;&#9;&#9;&#9;&#9;&#9;L697,165.8c-0.4-1.2-0.1-2.6,0.8-3.5c0.9-0.9,2.3-1.2,3.5-0.8l33.5,12.2c1.2,0.4,2,1.5,2.2,2.7c0.1,1.2-0.4,2.5-1.5,3.2&#10;&#9;&#9;&#9;&#9;&#9;l-5.7,3.8l17.1,17.1c1.3,1.3,1.3,3.4,0,4.7l-6.2,6.2C740,212.1,739.1,212.4,738.3,212.4z M718.3,185.8c0.9,0,1.7,0.3,2.3,1&#10;&#9;&#9;&#9;&#9;&#9;l17.7,17.7l1.5-1.5l-17.7-17.7c-0.7-0.7-1.1-1.7-1-2.7c0.1-1,0.6-1.9,1.5-2.4l3.6-2.4l-20.6-7.5l7.5,20.6l2.4-3.6&#10;&#9;&#9;&#9;&#9;&#9;c0.5-0.8,1.4-1.4,2.4-1.5C718,185.8,718.1,185.8,718.3,185.8z" transform="matrix(0.6701455116271973, 0, 0, 0.6701455116271973, -228.58087968826294, 63.1754150390625)"/></svg>