<?xml version="1.0" encoding="utf-8"?>
<svg id="master-artboard" viewBox="0 0 1239.883056640625 809.34912109375" version="1.1" xmlns="http://www.w3.org/2000/svg" x="0px" y="0px" width="1239.883056640625px" height="809.34912109375px" enable-background="new 0 0 1400 980" xmlns:xlink="http://www.w3.org/1999/xlink"><rect id="ee-background" x="0" y="0" width="1239.883056640625" height="809.34912109375" style="fill: white; fill-opacity: 0; pointer-events: none;"/>

<defs>
			<path id="SVGID_1_" d="M101.618,804.374h1202.94c0,0,55.593-270.045-174.445-353.768&#10;&#9;&#9;&#9;&#9;C943.271,382.604,1004.517,92.054,795.6,92.054c-172.922,0-398.758-19.499-440.921,305.986&#10;&#9;&#9;&#9;&#9;C323.743,636.85,89.619,538.401,101.618,804.374z"/>
		</defs><clipPath id="SVGID_2_">
			<use overflow="visible" xlink:href="#SVGID_1_"/>
		</clipPath>
<path fill="#FAE7E3" d="M101.618,804.374h1202.94c0,0,55.593-270.045-174.445-353.768&#10;&#9;&#9;C943.271,382.604,1004.517,92.054,795.6,92.054c-172.922,0-398.758-19.499-440.921,305.986&#10;&#9;&#9;C323.743,636.85,89.619,538.401,101.618,804.374z" transform="matrix(1, 0, 0, 1, -85.32544708251953, -76.89825439453125)"/><path fill="#7FABCC" d="M1040.829,637.714c3.443,3.576,4.859,8.572,6.984,13.06c4.772,10.073,13.72,18.088,24.256,21.727&#10;&#9;&#9;&#9;&#9;c7.11,2.456,15.787,3.663,19.438,10.24c1.403,2.527,1.783,5.483,2.019,8.364c0.599,7.327,0.43,14.716-0.503,22.007&#10;&#9;&#9;&#9;&#9;c-0.942,7.369-2.646,14.981-0.502,22.095c4.73,15.698,24.853,20.771,34.374,34.118c7.174,10.056,7.321,23.845,3.247,35.506&#10;&#9;&#9;&#9;&#9;c-2.401,6.874-6.26,13.401-11.962,17.928s-13.404,6.834-20.466,5.063c-3.704-0.928-7.057-2.892-10.289-4.924&#10;&#9;&#9;&#9;&#9;c-2.936-1.846-5.884-3.828-7.94-6.619c-7.598-10.315-0.125-26.701-7.895-36.888c-3.433-4.499-9.062-6.621-13.65-9.935&#10;&#9;&#9;&#9;&#9;c-9.022-6.519-13.885-18.343-12.059-29.322c0.718-4.318,2.367-8.425,3.343-12.692c3.16-13.83-1.394-29.167-11.591-39.03&#10;&#9;&#9;&#9;&#9;c-3.672-3.552-8.243-6.802-9.443-11.769c-1.866-7.723,5.42-15.314,4.046-23.14c-0.559-3.183-2.492-5.925-3.794-8.884&#10;&#9;&#9;&#9;&#9;C1024.131,634.818,1034.312,630.945,1040.829,637.714z" transform="matrix(1, 0, 0, 1, -85.32544708251953, -76.89825439453125)"/><path fill="none" stroke="#BED6EF" stroke-miterlimit="10" d="M1040.916,649.377c-2.851,7.952-0.077,17.038,4.972,23.812&#10;&#9;&#9;&#9;&#9;c5.049,6.774,12.104,11.719,18.947,16.674c2.702,1.957,5.489,4.049,6.974,7.037c1.308,2.636,1.453,5.673,1.67,8.607&#10;&#9;&#9;&#9;&#9;c0.928,12.537,3.712,25.161,10.098,35.989c3.988,6.765,9.287,12.679,13.35,19.399c8.761,14.488,11.305,31.979,10.908,48.905" transform="matrix(1, 0, 0, 1, -85.32544708251953, -76.89825439453125)"/><path fill="#91B7DA" d="M1122.844,618.154c1.625,11.556,11.414,19.988,20.611,27.171c18.781,14.665,30.562,33.372,20.217,57.534&#10;&#9;&#9;&#9;&#9;c-3.143,7.341-8.125,13.847-10.673,21.414c-3.3,9.803-2.101,21.023,3.197,29.907c2.699,4.526,6.359,8.407,9.213,12.838&#10;&#9;&#9;&#9;&#9;c11.195,17.382,8.054,41.343-3.609,58.413c-10.81,15.822-29.053,17.771-46.413,11.872c-7.136-2.424-13.786-6.982-17.431-13.578&#10;&#9;&#9;&#9;&#9;c-8.06-14.588,0.52-33.811-6.283-49.025c-1.472-3.291-3.606-6.233-5.438-9.338c-7.965-13.493-9.979-30.36-5.416-45.35&#10;&#9;&#9;&#9;&#9;c3.44-11.299,10.443-21.746,10.816-33.551c0.474-14.999-9.912-28.69-9.694-43.695c0.289-19.938,18.772-35.231,22.473-54.825&#10;&#9;&#9;&#9;&#9;c0.598-3.161,0.806-6.428,1.949-9.435s3.493-5.819,6.661-6.379c5.888-1.041,10.139,5.967,10.294,11.944&#10;&#9;&#9;&#9;&#9;C1123.607,595.26,1121.285,607.073,1122.844,618.154z" transform="matrix(1, 0, 0, 1, -85.32544708251953, -76.89825439453125)"/><path fill="none" stroke="#BED6EF" stroke-miterlimit="10" d="M1113.591,596.979c-4.274,16.686-8.506,34.593-2.638,50.787&#10;&#9;&#9;&#9;&#9;c3.823,10.551,11.636,19.318,15.276,29.935c2.341,6.825,2.852,14.269,1.467,21.35c-1.725,8.814-6.324,17.183-5.942,26.155&#10;&#9;&#9;&#9;&#9;c0.392,9.213,5.933,17.265,9.678,25.69c6.854,15.415,7.775,33.381,2.533,49.415c-0.217,0.663-0.626,1.454-1.322,1.415&#10;&#9;&#9;&#9;&#9;c-0.695-0.039-0.366-1.496,0.126-1.002" transform="matrix(1, 0, 0, 1, -85.32544708251953, -76.89825439453125)"/><path fill="#A0C3E7" d="M1172.848,833.01c7.889-5.5,13.134-13.974,17.722-22.426c2.999-5.528,5.893-11.493,5.542-17.772&#10;&#9;&#9;&#9;&#9;c-0.403-7.233-5.087-14.325-3.028-21.271c1.185-3.996,4.394-7.011,7.453-9.842c4.916-4.548,9.784-9.147,14.605-13.796&#10;&#9;&#9;&#9;&#9;c8.509-8.205,17.481-18.035,17.021-29.846c-0.362-9.296-6.604-17.364-8.3-26.511c-3.037-16.384,8.776-31.739,10.876-48.27&#10;&#9;&#9;&#9;&#9;c0.504-3.962,0.406-8.142-1.327-11.739c-1.734-3.598-5.399-6.467-9.391-6.326c-3.918,9.865-8.15,20.171-16.36,26.898&#10;&#9;&#9;&#9;&#9;c-9.047,7.413-21.874,9.542-29.86,18.088c-5.877,6.291-8.21,15.363-7.459,23.939c0.456,5.201,1.896,10.752-0.438,15.423&#10;&#9;&#9;&#9;&#9;c-2.123,4.251-6.763,6.498-10.99,8.667c-8.912,4.575-17.465,10.205-23.914,17.871s-10.645,17.582-9.95,27.576&#10;&#9;&#9;&#9;&#9;c0.469,6.733,3.094,13.403,1.989,20.062c-1.154,6.962-6.225,12.757-7.603,19.678&#10;&#9;&#9;&#9;&#9;C1113.973,830.85,1152.793,846.992,1172.848,833.01z" transform="matrix(1, 0, 0, 1, -85.32544708251953, -76.89825439453125)"/><path fill="none" stroke="#BED6EF" stroke-miterlimit="10" d="M1222.173,652.205c-2.856,9.359-8.075,17.987-15.038,24.864&#10;&#9;&#9;&#9;&#9;c-4.829,4.769-10.508,8.743-14.542,14.201c-7.739,10.47-8.172,24.483-7.862,37.5c0.309,13.016,0.883,26.786-5.399,38.189&#10;&#9;&#9;&#9;&#9;c-5.66,10.273-16.084,17.054-22.828,26.649c-3.7,5.266-6.237,11.345-7.378,17.679c-0.278,1.551-0.543,3.249-1.709,4.309&#10;&#9;&#9;&#9;&#9;s-3.55,0.749-3.754-0.812" transform="matrix(1, 0, 0, 1, -85.32544708251953, -76.89825439453125)"/><path fill="#7FABCC" d="M397.432,608.485c0.095,5.016,2.653,9.597,4.34,14.32c3.788,10.605,3.121,22.725-1.806,32.851&#10;&#9;&#9;&#9;&#9;c-3.325,6.835-8.662,13.896-6.572,21.204c0.803,2.808,2.644,5.19,4.534,7.418c4.806,5.661,10.206,10.819,16.081,15.362&#10;&#9;&#9;&#9;&#9;c5.938,4.592,12.593,8.812,16.144,15.426c7.835,14.596-2.916,32.595-0.183,48.933c2.059,12.31,11.805,22.267,23.047,27.687&#10;&#9;&#9;&#9;&#9;c6.625,3.195,14.045,5.102,21.354,4.262c7.308-0.84,14.458-4.693,18.239-11.003c1.983-3.31,2.975-7.107,3.833-10.869&#10;&#9;&#9;&#9;&#9;c0.778-3.415,1.469-6.938,0.944-10.401c-1.941-12.798-18.987-19.165-20.713-31.994c-0.763-5.666,1.744-11.204,2.654-16.85&#10;&#9;&#9;&#9;&#9;c1.789-11.103-3.184-23.023-12.333-29.563c-3.598-2.572-7.71-4.327-11.456-6.68c-12.138-7.622-19.841-21.833-19.603-36.164&#10;&#9;&#9;&#9;&#9;c0.085-5.162,1.029-10.749-1.661-15.155c-4.184-6.85-14.814-7.068-19.422-13.641c-1.875-2.673-2.453-6.014-3.636-9.058&#10;&#9;&#9;&#9;&#9;C407.293,594.487,397.252,598.994,397.432,608.485z" transform="matrix(1, 0, 0, 1, -85.32544708251953, -76.89825439453125)"/><path fill="none" stroke="#BED6EF" stroke-miterlimit="10" d="M405.702,616.88c7.719,3.646,12.228,12.118,13.46,20.563&#10;&#9;&#9;&#9;&#9;c1.233,8.446-0.275,17.021-1.624,25.449c-0.533,3.329-1.03,6.814,0.046,10.009c0.948,2.818,3.015,5.091,4.956,7.343&#10;&#9;&#9;&#9;&#9;c8.294,9.619,15.323,20.628,18.498,32.926c1.983,7.683,2.423,15.693,4.321,23.396c4.093,16.61,14.771,30.923,27.146,42.733" transform="matrix(1, 0, 0, 1, -85.32544708251953, -76.89825439453125)"/><path fill="#91B7DA" d="M324.865,653.104c7.095,9.418,6.126,22.435,4.686,34.138c-2.94,23.895,2.009,45.676,26.661,55.547&#10;&#9;&#9;&#9;&#9;c7.49,2.999,15.697,4.088,22.924,7.674c9.361,4.646,16.521,13.52,19.082,23.65c1.306,5.162,1.463,10.551,2.59,15.755&#10;&#9;&#9;&#9;&#9;c4.42,20.415,23.782,35.289,44.311,39.152c19.026,3.581,33.452-8.06,41.641-24.677c3.366-6.83,4.86-14.837,2.752-22.153&#10;&#9;&#9;&#9;&#9;c-4.664-16.181-24.526-23.784-30.536-39.514c-1.3-3.402-1.877-7.03-2.786-10.558c-3.95-15.33-14.561-28.819-28.53-36.268&#10;&#9;&#9;&#9;&#9;c-10.529-5.614-22.997-8.075-31.697-16.242c-11.054-10.377-13.416-27.578-24.291-38.143&#10;&#9;&#9;&#9;&#9;c-14.451-14.038-38.582-11.76-55.224-23.113c-2.685-1.832-5.167-4.017-8.132-5.348c-2.965-1.331-6.653-1.662-9.316,0.201&#10;&#9;&#9;&#9;&#9;c-4.95,3.463-2.98,11.506,1.179,15.887C307.963,637.294,318.062,644.075,324.865,653.104z" transform="matrix(1, 0, 0, 1, -85.32544708251953, -76.89825439453125)"/><path fill="none" stroke="#BED6EF" stroke-miterlimit="10" d="M316.347,631.365c14.974,8.868,30.792,18.639,38.168,34.4&#10;&#9;&#9;&#9;&#9;c4.806,10.27,5.489,22.114,10.472,32.299c3.204,6.549,8.156,12.232,14.205,16.302c7.529,5.064,16.794,7.757,22.932,14.44&#10;&#9;&#9;&#9;&#9;c6.301,6.861,8.096,16.572,11.439,25.268c6.116,15.909,18.293,29.402,33.494,37.113c0.628,0.319,1.486,0.592,1.955,0.066&#10;&#9;&#9;&#9;&#9;s-0.807-1.331-0.805-0.626" transform="matrix(1, 0, 0, 1, -85.32544708251953, -76.89825439453125)"/><path fill="#A0C3E7" d="M442.64,842.328c-9.566,1.706-19.367-0.601-28.683-3.362c-6.092-1.806-12.42-4-16.656-8.736&#10;&#9;&#9;&#9;&#9;c-4.88-5.457-6.6-13.869-13.033-17.36c-3.702-2.009-8.147-1.87-12.356-1.707c-6.761,0.263-13.525,0.455-20.291,0.578&#10;&#9;&#9;&#9;&#9;c-11.94,0.217-25.375-0.396-33.484-9.162c-6.382-6.899-7.687-17.123-13.01-24.869c-9.535-13.874-28.945-16.405-42.254-26.715&#10;&#9;&#9;&#9;&#9;c-3.19-2.471-6.107-5.526-7.438-9.336c-1.332-3.809-0.763-8.477,2.189-11.228c9.847,4.249,20.232,8.588,30.905,7.528&#10;&#9;&#9;&#9;&#9;c11.759-1.167,22.445-8.811,34.255-8.409c8.693,0.295,16.841,5.109,22.431,11.773c3.391,4.042,6.328,9.034,11.332,10.705&#10;&#9;&#9;&#9;&#9;c4.554,1.521,9.474-0.189,14.044-1.659c9.636-3.1,19.768-5.188,29.852-4.318c10.084,0.869,20.167,4.956,26.81,12.593&#10;&#9;&#9;&#9;&#9;c4.477,5.146,7.365,11.786,12.912,15.755c5.798,4.148,13.56,4.666,19.489,8.626C483.158,798.722,466.956,837.99,442.64,842.328z" transform="matrix(1, 0, 0, 1, -85.32544708251953, -76.89825439453125)"/><path fill="none" stroke="#BED6EF" stroke-miterlimit="10" d="M278.229,748.396c8.728,4.646,18.62,7.081,28.507,7.02&#10;&#9;&#9;&#9;&#9;c6.857-0.043,13.754-1.261,20.535-0.243c13.009,1.95,23.331,11.653,32.409,21.173c9.078,9.521,18.506,19.769,31.142,23.427&#10;&#9;&#9;&#9;&#9;c11.382,3.296,23.674,0.693,35.347,2.73c6.406,1.118,12.562,3.648,17.901,7.359c1.307,0.908,2.709,1.933,4.299,1.856&#10;&#9;&#9;&#9;&#9;s3.071-2,2.101-3.263" transform="matrix(1, 0, 0, 1, -85.32544708251953, -76.89825439453125)"/><path fill="#343435" d="M846.204,195.259H492.826c-18.547,0-33.583,15.036-33.583,33.583v559.954&#10;&#9;&#9;&#9;c0,18.547,15.036,33.583,33.583,33.583h353.378c18.548,0,33.583-15.036,33.583-33.583V228.842&#10;&#9;&#9;&#9;C879.787,210.295,864.752,195.259,846.204,195.259z" transform="matrix(1, 0, 0, 1, -85.32544708251953, -76.89825439453125)"/><path fill="#2792D1" d="M832.204,194.259H478.826c-18.547,0-33.583,15.036-33.583,33.583v559.954&#10;&#9;&#9;&#9;c0,18.547,15.036,33.583,33.583,33.583h353.378c18.548,0,33.583-15.036,33.583-33.583V227.842&#10;&#9;&#9;&#9;C865.787,209.295,850.752,194.259,832.204,194.259z" transform="matrix(1, 0, 0, 1, -85.32544708251953, -76.89825439453125)"/><path d="M 482.945007 216.889008 H 854.266998 V 798.595978 H 482.945007 V 216.889008 Z" fill="#A8C9E1" transform="matrix(1, 0, 0, 1, -85.32544708251953, -76.89825439453125)"/><path d="M 474.945007 216.889008 H 846.266998 V 798.595978 H 474.945007 V 216.889008 Z" fill="#C9DFF1" transform="matrix(1, 0, 0, 1, -85.32544708251953, -76.89825439453125)"/><path d="M 464.945007 216.889008 H 836.266998 V 798.595978 H 464.945007 V 216.889008 Z" fill="#DFEBF8" transform="matrix(1, 0, 0, 1, -85.32544708251953, -76.89825439453125)"/><path fill="#2764AF" d="M832.204,194.259H478.826c-18.547,0-33.583,15.036-33.583,33.583v40.866h420.544v-40.866&#10;&#9;&#9;&#9;C865.787,209.295,850.752,194.259,832.204,194.259z" transform="matrix(1, 0, 0, 1, -85.32544708251953, -76.89825439453125)"/><path fill="#6386C4" d="M780.104,194.259h-21.997c0-27.057-22.012-49.069-49.068-49.069H601.991&#10;&#9;&#9;&#9;&#9;c-27.057,0-49.069,22.012-49.069,49.069h-21.996c0-39.185,31.88-71.065,71.065-71.065h107.048&#10;&#9;&#9;&#9;&#9;C748.224,123.194,780.104,155.074,780.104,194.259z" transform="matrix(1, 0, 0, 1, -85.32544708251953, -76.89825439453125)"/><path d="M 488.002991 698.077026 H 548.063992 V 738.799026 H 488.002991 V 698.077026 Z" fill="#759AD1" transform="matrix(1, 0, 0, 1, -85.32544708251953, -76.89825439453125)"/><path d="M 488.876007 746.315002 L 530.518982 746.315002" fill="none" stroke="#557ABD" stroke-miterlimit="10" transform="matrix(1, 0, 0, 1, -85.32544708251953, -76.89825439453125)"/><path d="M 488.876007 755.103027 L 628.224976 755.103027" fill="none" stroke="#557ABD" stroke-miterlimit="10" transform="matrix(1, 0, 0, 1, -85.32544708251953, -76.89825439453125)"/><path d="M 488.876007 763.888977 L 628.224976 763.888977" fill="none" stroke="#557ABD" stroke-miterlimit="10" transform="matrix(1, 0, 0, 1, -85.32544708251953, -76.89825439453125)"/><path d="M 488.876007 772.676025 L 628.224976 772.676025" fill="none" stroke="#557ABD" stroke-miterlimit="10" transform="matrix(1, 0, 0, 1, -85.32544708251953, -76.89825439453125)"/><path d="M 488.002991 738.799011 L 548.062988 698.077026" fill="none" stroke="#DFEBF8" stroke-miterlimit="10" transform="matrix(1, 0, 0, 1, -85.32544708251953, -76.89825439453125)"/><path fill="#6386C4" d="M558.225,229.139h-38c-6.6,0-12-5.4-12-12v-0.5c0-6.6,5.4-12,12-12h38c6.6,0,12,5.4,12,12v0.5&#10;&#9;&#9;&#9;&#9;C570.225,223.739,564.825,229.139,558.225,229.139z" transform="matrix(1, 0, 0, 1, -85.32544708251953, -76.89825439453125)"/><path d="M 528.224976 216.889008 A 5 5 0 0 1 523.224976 221.889008 A 5 5 0 0 1 518.224976 216.889008 A 5 5 0 0 1 523.224976 211.889008 A 5 5 0 0 1 528.224976 216.889008 Z" fill="#2764AF" transform="matrix(1, 0, 0, 1, -85.32544708251953, -76.89825439453125)"/><path d="M 558.724976 216.889008 A 5 5 0 0 1 553.724976 221.889008 A 5 5 0 0 1 548.724976 216.889008 A 5 5 0 0 1 553.724976 211.889008 A 5 5 0 0 1 558.724976 216.889008 Z" fill="#2764AF" transform="matrix(1, 0, 0, 1, -85.32544708251953, -76.89825439453125)"/><path fill="#6386C4" d="M786.725,229.139h-38c-6.6,0-12-5.4-12-12v-0.5c0-6.6,5.4-12,12-12h38c6.6,0,12,5.4,12,12v0.5&#10;&#9;&#9;&#9;&#9;C798.725,223.739,793.324,229.139,786.725,229.139z" transform="matrix(1, 0, 0, 1, -85.32544708251953, -76.89825439453125)"/><path d="M 756.724976 216.889008 A 5 5 0 0 1 751.724976 221.889008 A 5 5 0 0 1 746.724976 216.889008 A 5 5 0 0 1 751.724976 211.889008 A 5 5 0 0 1 756.724976 216.889008 Z" fill="#2764AF" transform="matrix(1, 0, 0, 1, -85.32544708251953, -76.89825439453125)"/><path d="M 787.224976 216.889008 A 5 5 0 0 1 782.224976 221.889008 A 5 5 0 0 1 777.224976 216.889008 A 5 5 0 0 1 782.224976 211.889008 A 5 5 0 0 1 787.224976 216.889008 Z" fill="#2764AF" transform="matrix(1, 0, 0, 1, -85.32544708251953, -76.89825439453125)"/><path d="M 777.224976 460.541992 A 119 119 0 0 1 658.224976 579.541992 A 119 119 0 0 1 539.224976 460.541992 A 119 119 0 0 1 658.224976 341.541992 A 119 119 0 0 1 777.224976 460.541992 Z" fill="#F2F2F3" transform="matrix(1, 0, 0, 1, -85.32544708251953, -76.89825439453125)"/><path fill="#7295CD" d="M670.016,591.021h-27.847c-11.112,0-20.12-9.008-20.12-20.119V432.983h68.086v137.918&#10;&#9;&#9;&#9;C690.135,582.013,681.127,591.021,670.016,591.021z" transform="matrix(1, 0, 0, 1, -85.32544708251953, -76.89825439453125)"/><path fill="#6082B2" d="M655.29,547v44.021h14.726c11.112,0,20.12-9.008,20.12-20.119V547H655.29z" transform="matrix(1, 0, 0, 1, -85.32544708251953, -76.89825439453125)"/><path fill="#FCB43D" d="M739.709,391.885c0-46.18-37.437-83.617-83.617-83.617c-0.268,0-0.535,0.008-0.802,0.01v24.453&#10;&#9;&#9;&#9;c0.267-0.008,0.533-0.02,0.802-0.02c14.528,0,26.306,11.777,26.306,26.306c0,14.529-11.778,26.306-26.306,26.306&#10;&#9;&#9;&#9;c-0.269,0-0.535-0.012-0.802-0.02v25.946h-16.693c0.109-0.975,0.171-1.964,0.171-2.968c0-14.528-11.778-26.306-26.306-26.306&#10;&#9;&#9;&#9;s-26.306,11.778-26.306,26.306c0,1.004,0.062,1.993,0.171,2.968h-11.591c1.831,7.712,4.725,15.013,8.525,21.734l0,0v0&#10;&#9;&#9;&#9;c2.621,4.634,5.67,8.992,9.096,13.021c12.633,18.826,33.534,53.049,29.692,68.225h68.086c0,0,2.999-28.499,28.25-66.57&#10;&#9;&#9;&#9;c4.016-4.483,7.555-9.401,10.538-14.676c0,0,0,0,0,0l0,0C735.787,420.845,739.709,406.824,739.709,391.885z" transform="matrix(1, 0, 0, 1, -85.32544708251953, -76.89825439453125)"/><path opacity="0.65" fill="#E99E2E" d="M728.923,432.983L728.923,432.983c1.196-2.115,2.297-4.291,3.31-6.516&#10;&#9;&#9;&#9;c-34.413-9.279-59.334-22.774-76.942-35.809v20.59h-16.693c0.11-0.975,0.171-1.964,0.171-2.968&#10;&#9;&#9;&#9;c0-14.528-11.778-26.306-26.306-26.306s-26.306,11.778-26.306,26.306c0,1.004,0.062,1.993,0.171,2.968h-11.591&#10;&#9;&#9;&#9;c1.831,7.712,4.725,15.013,8.525,21.734l0,0v0c2.621,4.633,5.67,8.992,9.096,13.021c12.633,18.826,33.534,53.049,29.692,68.225&#10;&#9;&#9;&#9;h68.086c0,0,2.999-28.499,28.25-66.57C722.4,443.176,725.939,438.258,728.923,432.983L728.923,432.983z" transform="matrix(1, 0, 0, 1, -85.32544708251953, -76.89825439453125)"/><path opacity="0.83" fill="#AE722A" d="M690.135,514.229c0,0,2.999-28.499,28.25-66.57c1.076-1.202,2.112-2.44,3.119-3.703&#10;&#9;&#9;&#9;c-16.914,3.062-45.012,4.578-68.763-5.623c-26.581-11.416-46.337,7.406-54.262,17.053c12.217,19.271,26.837,45.939,23.57,58.843&#10;&#9;&#9;&#9;H690.135z" transform="matrix(1, 0, 0, 1, -85.32544708251953, -76.89825439453125)"/><path fill="#2365B0" d="M693.67,524.596h-76.76c-5.638,0-10.208-4.57-10.208-10.208v-14.129c0-5.639,4.57-10.208,10.208-10.208&#10;&#9;&#9;&#9;h76.76c5.638,0,10.208,4.57,10.208,10.208v14.129C703.879,520.025,699.309,524.596,693.67,524.596z" transform="matrix(1, 0, 0, 1, -85.32544708251953, -76.89825439453125)"/><path fill="#2365B0" d="M693.67,559.143h-76.76c-5.638,0-10.208-4.571-10.208-10.209v-14.129c0-5.638,4.57-10.209,10.208-10.209&#10;&#9;&#9;&#9;h76.76c5.638,0,10.208,4.571,10.208,10.209v14.129C703.879,554.571,699.309,559.143,693.67,559.143z" transform="matrix(1, 0, 0, 1, -85.32544708251953, -76.89825439453125)"/><path fill="#966327" d="M676.075,459.686c0-6.803-4.303-12.337-9.593-12.337c-1.872,0-3.618,0.695-5.096,1.892&#10;&#9;&#9;&#9;c-1.478-1.196-3.225-1.892-5.096-1.892c-1.872,0-3.618,0.695-5.096,1.892c-1.478-1.196-3.224-1.892-5.095-1.892&#10;&#9;&#9;&#9;c-5.29,0-9.593,5.534-9.593,12.337c0,6.324,3.72,11.548,8.493,12.253v18.112h2.2v-18.112c1.456-0.215,2.812-0.85,3.996-1.809&#10;&#9;&#9;&#9;c1.478,1.197,3.225,1.892,5.096,1.892c1.871,0,3.618-0.695,5.096-1.892c1.184,0.959,2.541,1.594,3.996,1.809v18.112h2.2v-18.112&#10;&#9;&#9;&#9;C672.355,471.234,676.075,466.009,676.075,459.686z M661.386,467.011c-1.412-1.847-2.297-4.445-2.297-7.326&#10;&#9;&#9;&#9;c0-2.881,0.885-5.479,2.297-7.326c1.412,1.847,2.297,4.445,2.297,7.326C663.684,462.566,662.798,465.164,661.386,467.011z&#10;&#9;&#9;&#9; M651.194,467.011c-1.412-1.847-2.297-4.445-2.297-7.326c0-2.881,0.885-5.479,2.297-7.326c1.412,1.847,2.297,4.445,2.297,7.326&#10;&#9;&#9;&#9;C653.492,462.566,652.606,465.164,651.194,467.011z M638.706,459.686c0-5.59,3.316-10.137,7.394-10.137&#10;&#9;&#9;&#9;c1.286,0,2.495,0.454,3.549,1.249c-1.817,2.246-2.951,5.399-2.951,8.889c0,3.489,1.134,6.642,2.951,8.888&#10;&#9;&#9;&#9;c-1.054,0.795-2.263,1.249-3.549,1.249C642.022,469.822,638.706,465.275,638.706,459.686z M652.741,468.573&#10;&#9;&#9;&#9;c1.816-2.246,2.95-5.399,2.95-8.888c0-3.489-1.134-6.643-2.95-8.889c1.054-0.794,2.263-1.249,3.549-1.249&#10;&#9;&#9;&#9;c1.286,0,2.495,0.454,3.549,1.249c-1.817,2.246-2.951,5.399-2.951,8.889c0,3.489,1.134,6.642,2.951,8.888&#10;&#9;&#9;&#9;c-1.055,0.795-2.264,1.249-3.549,1.249C655.004,469.822,653.795,469.368,652.741,468.573z M666.482,469.822&#10;&#9;&#9;&#9;c-1.286,0-2.495-0.454-3.549-1.249c1.817-2.246,2.951-5.399,2.951-8.888c0-3.489-1.134-6.643-2.951-8.889&#10;&#9;&#9;&#9;c1.054-0.794,2.264-1.249,3.549-1.249c4.077,0,7.393,4.547,7.393,10.137C673.875,465.275,670.559,469.822,666.482,469.822z" transform="matrix(1, 0, 0, 1, -85.32544708251953, -76.89825439453125)"/><path fill="#FAE7E3" d="M698.448,334.269c-13.889-8.019-28.87-8.073-33.461-0.122c-0.018,0.031-0.031,0.062-0.048,0.093&#10;&#9;&#9;&#9;c10.176,3.634,17.46,13.353,17.46,24.777c0,1.424-0.117,2.82-0.335,4.183c13.821,7.881,28.656,7.893,33.22-0.013&#10;&#9;&#9;&#9;C719.875,355.234,712.337,342.288,698.448,334.269z" transform="matrix(1, 0, 0, 1, -85.32544708251953, -76.89825439453125)"/><path fill="#195289" d="M606.702,507.323v7.064c0,5.638,4.57,10.208,10.208,10.208h76.761c5.638,0,10.208-4.57,10.208-10.208&#10;&#9;&#9;&#9;v-7.064H606.702z" transform="matrix(1, 0, 0, 1, -85.32544708251953, -76.89825439453125)"/><path fill="#195289" d="M606.702,542.27v6.664c0,5.639,4.57,10.209,10.208,10.209h76.761c5.638,0,10.208-4.57,10.208-10.209&#10;&#9;&#9;&#9;v-6.664H606.702z" transform="matrix(1, 0, 0, 1, -85.32544708251953, -76.89825439453125)"/><path fill="#2B2B2B" d="M404.291,583.433c0,0,25.249,196.917,32.017,262.06c0,0-5.307,5.943-18.423,2.258&#10;&#9;&#9;&#9;c0,0-56.458-165.6-67.468-271.052L404.291,583.433z" transform="matrix(1, 0, 0, 1, -85.32544708251953, -76.89825439453125)"/><path fill="#343435" d="M393.427,587.864l-69.457,258.79c0,0-3.527,9.672-18.139,1.346c0,0,3.502-165.333,16.65-272.718&#10;&#9;&#9;&#9;L393.427,587.864z" transform="matrix(1, 0, 0, 1, -85.32544708251953, -76.89825439453125)"/><path fill="#5277AF" d="M455.391,531.928l1.399-16.682l-76.632-10.501c-8.808-1.206-16.895,6.509-17.771,16.955l0,0&#10;&#9;&#9;&#9;c-0.895,10.673,6.096,19.736,15.186,19.685L455.391,531.928z" transform="matrix(1, 0, 0, 1, -85.32544708251953, -76.89825439453125)"/><path fill="#5D82C1" d="M388.629,443.465c0,0,16.999-4.525,18.183,37.383c0.963,34.085,7.49,73.651-2.522,102.584&#10;&#9;&#9;&#9;c0,0-44.416,19.817-83.791-1.297c0,0-5.188-21.752-0.5-45.386c6-30.25,7.389-37.209,5.879-51.098c0,0-15.278-48.147,23.231-43.769&#10;&#9;&#9;&#9;L388.629,443.465z" transform="matrix(1, 0, 0, 1, -85.32544708251953, -76.89825439453125)"/><path fill="#4473AA" d="M409.55,530.535C409.55,530.534,409.55,530.534,409.55,530.535&#10;&#9;&#9;&#9;c-41.949-12.467-58.017-65.794-58.017-65.794s-13.597-4.791-27.442-8.612c-3.504,12.833,1.788,29.523,1.788,29.523&#10;&#9;&#9;&#9;C327.389,499.54,326,506.5,320,536.75c-3.57,17.996-1.414,34.89-0.182,41.931C345.312,580.281,409.531,530.55,409.55,530.535z" transform="matrix(1, 0, 0, 1, -85.32544708251953, -76.89825439453125)"/><path fill="#2B2B2B" d="M322.359,845.015c0,0,6.514,9.998,44.419,14.903c0,0,5.387,6.425-8.702,5.86s-52.129-2.088-52.129-2.088&#10;&#9;&#9;&#9;l-0.165-17.314L322.359,845.015z" transform="matrix(1, 0, 0, 1, -85.32544708251953, -76.89825439453125)"/><path fill="#2B2B2B" d="M434.392,843.739c0,0,6.909,9.729,44.979,13.113c0,0,5.64,6.204-8.46,6.204s-52.171,0-52.171,0&#10;&#9;&#9;&#9;l-0.857-17.294L434.392,843.739z" transform="matrix(1, 0, 0, 1, -85.32544708251953, -76.89825439453125)"/><path fill="#B3AEB8" d="M509.869,473.595l-4.641-4.102l-0.002,0.003c-0.603-0.596-1.5-0.897-2.44-0.623l-46.142,13.486&#10;&#9;&#9;&#9;&#9;c-4.064,1.188-7.287,4.293-8.625,8.311l-28.693,86.158c-0.246,0.739-0.124,1.463,0.222,2.044l-0.002,0.004l0.017,0.016&#10;&#9;&#9;&#9;&#9;c0.249,0.408,0.613,0.732,1.045,0.944l3.879,3.507l3.984-5.121l40.054-11.707c4.065-1.188,7.288-4.293,8.625-8.311l24.777-74.4&#10;&#9;&#9;&#9;&#9;L509.869,473.595z" transform="matrix(1, 0, 0, 1, -85.32544708251953, -76.89825439453125)"/><path fill="#7F7D82" d="M507.238,472.765l-46.143,13.485c-4.064,1.188-7.287,4.293-8.625,8.311l-28.692,86.157&#10;&#9;&#9;&#9;&#9;c-0.634,1.904,1.131,3.735,3.057,3.173l46.142-13.485c4.064-1.188,7.287-4.294,8.625-8.311l28.692-86.158&#10;&#9;&#9;&#9;&#9;C510.929,474.034,509.164,472.202,507.238,472.765z" transform="matrix(1, 0, 0, 1, -85.32544708251953, -76.89825439453125)"/><path fill="#B3AEB8" d="M501.546,480.632l-39.609,11.577c-3.489,1.02-6.255,3.685-7.404,7.134l-24.63,73.958&#10;&#9;&#9;&#9;&#9;c-0.544,1.634,0.971,3.206,2.624,2.724l39.608-11.576c3.489-1.02,6.256-3.686,7.404-7.134l24.63-73.959&#10;&#9;&#9;&#9;&#9;C504.714,481.722,503.199,480.149,501.546,480.632z" transform="matrix(1, 0, 0, 1, -85.32544708251953, -76.89825439453125)"/><path fill="#7F7D82" d="M450.419,500.721l57.188-16.714l2.688-8.069c0.634-1.903-1.131-3.735-3.057-3.172l-46.143,13.485&#10;&#9;&#9;&#9;&#9;c-4.064,1.188-7.287,4.293-8.625,8.311L450.419,500.721z" transform="matrix(1, 0, 0, 1, -85.32544708251953, -76.89825439453125)"/><path fill="#F9CCC6" d="M485.905,540.108c-3.903-2.883-6.758-7.854-5.507-12.543c0.877-3.286,3.593-5.812,6.609-7.384&#10;&#9;&#9;&#9;c2.94-1.532,6.204-2.314,9.429-3.082c0.267-0.063,0.548-0.127,0.811-0.048c0.273,0.083,0.479,0.308,0.649,0.538&#10;&#9;&#9;&#9;c1.115,1.513,1.219,3.52,1.278,5.398c0.124,3.928,0.223,7.969-1.132,11.658C496.149,539.804,490.962,543.844,485.905,540.108z" transform="matrix(1, 0, 0, 1, -85.32544708251953, -76.89825439453125)"/><path fill="#F9CCC6" d="M411.441,533.681c0,0,14.432-12.242,26.438-12.564c0,0-1.008,4.94-3.795,8.979c0,0,3.628,10.193,24-0.559&#10;&#9;&#9;&#9;c0,0,3.399,29.002-38.065,17.19l-8.68-0.868l-4.106-9.812L411.441,533.681z" transform="matrix(1, 0, 0, 1, -85.32544708251953, -76.89825439453125)"/><path fill="#5D82C1" d="M349.059,539.95l2.738-83.22c0.392-11.9-12.97-19.215-22.873-12.521l0,0&#10;&#9;&#9;&#9;c-6.626,4.479-10.7,11.836-10.962,19.799l-2.463,74.838c-0.303,9.213,6.964,16.928,16.231,17.233l0,0&#10;&#9;&#9;&#9;C340.997,556.384,348.755,549.162,349.059,539.95z" transform="matrix(1, 0, 0, 1, -85.32544708251953, -76.89825439453125)"/><path fill="#5D82C1" d="M415.531,530.663l2.494,16.298l-86.77,10.191c-9.437-0.209-16.58-9.99-15.698-21.493l0,0&#10;&#9;&#9;&#9;c0.901-11.753,9.789-20.396,19.304-18.771L415.531,530.663z" transform="matrix(1, 0, 0, 1, -85.32544708251953, -76.89825439453125)"/><path fill="#3A5478" d="M349.11,441.902c4.353,3.453,14.603,52.282,38.779,61.265c0,0,6.028-44.333,0.738-59.632&#10;&#9;&#9;&#9;c-1.411-0.361-2.882-0.581-4.403-0.625L349.11,441.902z" transform="matrix(1, 0, 0, 1, -85.32544708251953, -76.89825439453125)"/><path fill="#FFFFFF" d="M354.548,442.058c0,0,11.195,45.275,31.813,56.526c0,0,6.806-47.092-0.447-55.536&#10;&#9;&#9;&#9;c-0.558-0.063-1.117-0.122-1.689-0.138L354.548,442.058z" transform="matrix(1, 0, 0, 1, -85.32544708251953, -76.89825439453125)"/><path fill="#F9CCC6" d="M381.263,464.741l4.479-21.711c-0.501-0.055-1.004-0.105-1.517-0.12l-29.677-0.852&#10;&#9;&#9;&#9;C354.548,442.058,374.525,464.149,381.263,464.741z" transform="matrix(1, 0, 0, 1, -85.32544708251953, -76.89825439453125)"/><path fill="#F9CCC6" d="M357.646,418.465c0,0,3.609,20.766-4.184,26.89c0,0,18.784,9.003,32.135,0.923&#10;&#9;&#9;&#9;c0,0-2.491-16.414,0.763-26.558L357.646,418.465z" transform="matrix(1, 0, 0, 1, -85.32544708251953, -76.89825439453125)"/><path fill="#F9CCC6" d="M387.6,369.652c9.242,3.939,14.994,12.759,15.889,22.573l0.015-0.012c0,0-0.919,16.049,7.167,18.116&#10;&#9;&#9;&#9;c0,0-2.23,3.384-6.73,2.616c0,0-8.677,31.861-39.01,9.888c-13.754-5.863-19.83-22.521-13.569-37.207&#10;&#9;&#9;&#9;C357.621,370.941,373.846,363.789,387.6,369.652z" transform="matrix(1, 0, 0, 1, -85.32544708251953, -76.89825439453125)"/><path fill="#F0516B" d="M395.919,413c0,0-6.249,7.403,3.33,9.333c1.355-1.843,2.378-3.711,3.115-5.298&#10;&#9;&#9;&#9;C402.32,417.027,399.254,417.109,395.919,413z" transform="matrix(1, 0, 0, 1, -85.32544708251953, -76.89825439453125)"/><path fill="#F38720" d="M385.665,384.873c0,0-3.881,21.732-13.915,28.127c0,0,0.875,16.5-13.358,18.986&#10;&#9;&#9;&#9;c0,0-22.458-13.667-15.383-42.607c0,0-3.991-2.885-5.957-1.865c0,0,1.573-4.354,5.918-2.895c0,0-0.9-12.639,18.904-16.619&#10;&#9;&#9;&#9;c28.059-5.638,17.542-17.167,17.542-17.167s6.188,3.372,8.583,11.042c0,0,19.875,2.625,18.125,20.75&#10;&#9;&#9;&#9;C406.125,382.625,391.075,380.331,385.665,384.873z" transform="matrix(1, 0, 0, 1, -85.32544708251953, -76.89825439453125)"/><path fill="#F9CCC6" d="M376.103,405.7c0,0,1.364-9.611-9.077-8.584c-10.441,1.027-3.158,22.069,5.479,22.8L376.103,405.7z" transform="matrix(1, 0, 0, 1, -85.32544708251953, -76.89825439453125)"/><path fill="#C9C9C9" d="M376.496,462.771l-1.798-6.923c0,0-11.834-13.551-20.15-13.79&#10;&#9;&#9;&#9;C354.548,442.058,362.838,458.5,376.496,462.771z" transform="matrix(1, 0, 0, 1, -85.32544708251953, -76.89825439453125)"/><path fill="#C9C9C9" d="M385.914,443.048c0,0-7.205,12.38-4.651,21.693C381.263,464.741,387.262,452.858,385.914,443.048z" transform="matrix(1, 0, 0, 1, -85.32544708251953, -76.89825439453125)"/><path d="M 371.64300537109375 459.2149963378906 L 384.3599853515625 458.2659912109375 L 382 467.5 L 379 467.5 Z" fill="#F0516B" transform="matrix(1, 0, 0, 1, -85.32544708251953, -76.89825439453125)"/><path fill="#F0516B" d="M379,467.5l0.784,26.124c0,0,4.474,5.028,6.577,4.96l1.136-9.132L382,467.5H379z" transform="matrix(1, 0, 0, 1, -85.32544708251953, -76.89825439453125)"/><path fill="#EAEAEA" d="M374.698,455.848l-7.7,8.483c0,0-17.883-7.458-12.451-22.273&#10;&#9;&#9;&#9;C354.548,442.058,364.994,443.339,374.698,455.848z" transform="matrix(1, 0, 0, 1, -85.32544708251953, -76.89825439453125)"/><path fill="#EAEAEA" d="M380.832,456.024c0,0,2.415-0.957,5.022,5.006c0,0,4.504-11.545,0.11-19.077&#10;&#9;&#9;&#9;C385.964,441.954,380.933,451.634,380.832,456.024z" transform="matrix(1, 0, 0, 1, -85.32544708251953, -76.89825439453125)"/><path fill="#2B2B2B" d="M888.819,867.011c0,0,10.154-6.269,46.535,5.449c0,0,7.611-3.517-5.374-9.011&#10;&#9;&#9;&#9;c-12.986-5.494-48.048-20.327-48.048-20.327l-7.528,15.593L888.819,867.011z" transform="matrix(1, 0, 0, 1, -85.32544708251953, -76.89825439453125)"/><path fill="#2B2B2B" d="M679.289,717.609L679.289,717.609c3.462-11.223,14.693-17.294,24.014-12.981l104.517,48.355l-10.082,59.05&#10;&#9;&#9;&#9;l-109.77-71.361C680.088,737.01,676.36,727.104,679.289,717.609z" transform="matrix(1, 0, 0, 1, -85.32544708251953, -76.89825439453125)"/><path fill="#2B2B2B" d="M714.148,847.881L679.72,726.554c-3.101-8.808,3.016-18.827,13.244-21.693l0,0&#10;&#9;&#9;&#9;c10.12-2.836,20.007,2.533,21.529,11.692l13.521,44.401c2.318,7.427,3.717,15.134,4.17,22.986l-0.246,20.253&#10;&#9;&#9;&#9;c-0.629,12.832-2.101,25.436,0.785,37.725L714.148,847.881z" transform="matrix(1, 0, 0, 1, -85.32544708251953, -76.89825439453125)"/><path fill="#343435" d="M737.051,858.446L737.051,858.446c-10.542-5.175-14.781-17.218-9.064-25.749l123.017-111.812l4.475,65.441&#10;&#9;&#9;&#9;c0.723,10.567-4.724,20.602-13.979,25.753l-78.182,43.523C753.729,861.438,745.97,862.825,737.051,858.446z" transform="matrix(1, 0, 0, 1, -85.32544708251953, -76.89825439453125)"/><path fill="#343435" d="M886.979,866.858l-143.511-3.449c-10.634,0.324-19.27-8.516-18.697-19.139l0,0&#10;&#9;&#9;&#9;c0.566-10.512,9.919-18.344,20.367-17.056l52.851,0.383c8.86,0.01,17.693,0.982,26.344,2.9l21.806,6.298&#10;&#9;&#9;&#9;c13.646,4.442,27.482,12.534,41.803,13.458L886.979,866.858z" transform="matrix(1, 0, 0, 1, -85.32544708251953, -76.89825439453125)"/><path fill="#CCC8D2" d="M659.387,661.073h-4.329c-1.728,0-3.128-1.4-3.128-3.128v-55.574c0-1.728,1.4-3.128,3.128-3.128h4.329&#10;&#9;&#9;&#9;&#9;c1.728,0,3.128,1.4,3.128,3.128v55.574C662.515,659.673,661.115,661.073,659.387,661.073z" transform="matrix(1, 0, 0, 1, -85.32544708251953, -76.89825439453125)"/><path d="M 666.3109741210938 574 L 666.3109741210938 592.3140258789062 L 657.2230224609375 596.8469848632812 L 648.135009765625 592.3140258789062 L 648.135009765625 573.9990234375 L 640.4210205078125 577.4769897460938 L 640.4210205078125 596.8770141601562 L 657.2230224609375 606.5770263671875 L 674.0239868164062 596.8770141601562 L 674.0239868164062 577.4769897460938 Z" fill="#CCC8D2" transform="matrix(1, 0, 0, 1, -85.32544708251953, -76.89825439453125)"/><path fill="#F9CCC6" d="M685.942,637.274c0,0-13.078-20.415-26.811-19.721c0,0-7.366,0.543,3.591,10.189&#10;&#9;&#9;&#9;c0,0-7.325,25.06,10.464,20.24l6.936,4.819l9.294-12.176L685.942,637.274z" transform="matrix(1, 0, 0, 1, -85.32544708251953, -76.89825439453125)"/><path fill="#464547" d="M752.646,698.896l48.918-59.751c6.995-8.544,1.334-21.415-9.691-22.033l0,0&#10;&#9;&#9;&#9;c-7.377-0.413-14.508,2.723-19.188,8.44l-43.991,53.732c-5.416,6.615-4.443,16.367,2.171,21.782l0,0&#10;&#9;&#9;&#9;C737.479,706.482,747.231,705.511,752.646,698.896z" transform="matrix(1, 0, 0, 1, -85.32544708251953, -76.89825439453125)"/><path fill="#464547" d="M676.106,657.911l8.996-19.901l61.933,42.409c6.565,4.832,7.772,14.165,2.653,20.508l0,0&#10;&#9;&#9;&#9;c-5.23,6.481-14.869,7.144-20.937,1.438L676.106,657.911z" transform="matrix(1, 0, 0, 1, -85.32544708251953, -76.89825439453125)"/><path fill="#4D4B50" d="M793.248,617.554c0,0,34.412-9.032,59.399,2.53c0,0,14.271,64.297,1.299,122.39&#10;&#9;&#9;&#9;c0,0,2.749,20.027,2.538,28.2c0,0-76.811,20.277-87.395-38.993c0,0,13.74-22.084,5.729-73.468&#10;&#9;&#9;&#9;C774.818,658.213,774.903,620.471,793.248,617.554z" transform="matrix(1, 0, 0, 1, -85.32544708251953, -76.89825439453125)"/><path fill="#F9CCC6" d="M824.208,593.938c0,0-4.204,20.654,3.41,26.999c0,0-19.035,8.46-32.148,0c0,0,2.961-16.336,0-26.568&#10;&#9;&#9;&#9;L824.208,593.938z" transform="matrix(1, 0, 0, 1, -85.32544708251953, -76.89825439453125)"/><path fill="#2B2B2B" d="M713.56,842.312c0,0-6.384,10.082-44.221,15.479c0,0-5.303,6.494,8.777,5.747&#10;&#9;&#9;&#9;c14.081-0.748,52.097-2.766,52.097-2.766l-0.061-17.315L713.56,842.312z" transform="matrix(1, 0, 0, 1, -85.32544708251953, -76.89825439453125)"/><path fill="#F9CCC6" d="M827.873,741.864c0,0-18.402,11.019-18.546,24.769c0,0-2.209,5.981,8.088-4.367&#10;&#9;&#9;&#9;c0,0,8.558,6.621-8.001,22.633c0,0,26.501,12.26,28.187-30.82l5.418-5.458l-11.587-10.019L827.873,741.864z" transform="matrix(1, 0, 0, 1, -85.32544708251953, -76.89825439453125)"/><path fill="#F9CCC6" d="M808.816,542.386c-10.002,0.954-18.155,7.616-21.981,16.698l-0.011-0.016c0,0-5.875,1.938-14.345,15.094&#10;&#9;&#9;&#9;c0,0,3.126,3.9,7.648,4.53c0,0-1.384,32.993,34.181,21.243c14.884-1.421,25.72-15.455,24.203-31.348&#10;&#9;&#9;&#9;C836.995,552.696,823.7,540.965,808.816,542.386z" transform="matrix(1, 0, 0, 1, -85.32544708251953, -76.89825439453125)"/><path fill="#4D4B50" d="M805.524,560.423c0,0-8.794,14.519,1.833,21.931c0,0,4.618,18.143,15.806,21.097&#10;&#9;&#9;&#9;c0,0,25.868-11.594,19.481-43.401c0,0,6.528-0.711,8.621,0.487c0,0-2.836-4.231-8.364-5.664c0,0-38.812-55.199-64.74-7.455&#10;&#9;&#9;&#9;C778.161,547.417,801.857,552.115,805.524,560.423z" transform="matrix(1, 0, 0, 1, -85.32544708251953, -76.89825439453125)"/><path fill="#EE293D" d="M782.432,590.853c4.738-0.229,5.647-5.132,5.647-5.132c-2.409,0.243-5.193-0.311-7.429-0.944&#10;&#9;&#9;&#9;C780.986,586.638,781.542,588.75,782.432,590.853z" transform="matrix(1, 0, 0, 1, -85.32544708251953, -76.89825439453125)"/><path fill="#F9CCC6" d="M806.173,574.151c0,0,13.167-10.333,14.269-3.347c1.103,6.985-7.299,21.414-11.939,20.211&#10;&#9;&#9;&#9;S806.173,574.151,806.173,574.151z" transform="matrix(1, 0, 0, 1, -85.32544708251953, -76.89825439453125)"/><path fill="#FFFFFF" d="M825.609,614.271l-26.089,91.923l-6.272-88.641C793.248,617.554,808.235,613.623,825.609,614.271z" transform="matrix(1, 0, 0, 1, -85.32544708251953, -76.89825439453125)"/><path d="M 809.4290161132812 629.4359741210938 L 802.7459716796875 629.4359741210938 L 805.47802734375 635.9219970703125 Z" fill="#EE293D" transform="matrix(1, 0, 0, 1, -85.32544708251953, -76.89825439453125)"/><path d="M 806.4639892578125 633.666015625 L 804.6409912109375 690.947998046875 L 799.52099609375 706.1939697265625 L 796.6170043945312 685 L 805.47802734375 632.6790161132812 Z" fill="#EE293D" transform="matrix(1, 0, 0, 1, -85.32544708251953, -76.89825439453125)"/><path fill="#F9CCC6" d="M825.539,614.268l-19.075,13.476l-13.216-10.189C793.248,617.554,808.194,613.634,825.539,614.268z" transform="matrix(1, 0, 0, 1, -85.32544708251953, -76.89825439453125)"/><path fill="#353338" d="M799.521,706.194l24.71-60.402l-3.384-10.152l13.254-12.972c0,0-1.673-8.512-8.46-8.473L799.521,706.194z" transform="matrix(1, 0, 0, 1, -85.32544708251953, -76.89825439453125)"/><path fill="#353338" d="M793.248,617.554c0,0-7.562-2.915-10.428,2.087l7.665,16.846l-4.325,7.991l13.36,61.717L793.248,617.554z" transform="matrix(1, 0, 0, 1, -85.32544708251953, -76.89825439453125)"/><path fill="#C8C6CC" d="M806.464,627.743l7.191,6.486l13.396-16.647l-2.256-3.387&#10;&#9;&#9;&#9;C824.795,614.195,807.874,621.681,806.464,627.743z" transform="matrix(1, 0, 0, 1, -85.32544708251953, -76.89825439453125)"/><path fill="#C8C6CC" d="M793.248,617.554c0,0,11.102,3.985,13.216,10.189l-5.566,5.923&#10;&#9;&#9;&#9;C800.897,633.666,792.863,626.117,793.248,617.554z" transform="matrix(1, 0, 0, 1, -85.32544708251953, -76.89825439453125)"/><path fill="#F9CCC6" d="M651.931,620.947c0,0,9.693,11.343,5.951,20.46c-3.742,9.117-12.503,7.2-12.926,2.24&#10;&#9;&#9;&#9;C644.533,638.688,645.831,619.549,651.931,620.947z" transform="matrix(1, 0, 0, 1, -85.32544708251953, -76.89825439453125)"/><path fill="#464547" d="M866.888,702.317l-34.404-69.134c-4.92-9.887,3.463-21.176,14.349-19.326l0,0&#10;&#9;&#9;&#9;c7.285,1.237,13.54,5.882,16.832,12.497l30.938,62.171c3.809,7.652,0.692,16.944-6.961,20.753l0,0&#10;&#9;&#9;&#9;C879.988,713.087,870.696,709.971,866.888,702.317z" transform="matrix(1, 0, 0, 1, -85.32544708251953, -76.89825439453125)"/><path fill="#464547" d="M842.182,758.46l-15.64-14.961l42.824-56.721c5.127-6.337,14.505-7.115,20.607-1.711l0,0&#10;&#9;&#9;&#9;c6.235,5.521,6.454,15.181,0.477,20.979L842.182,758.46z" transform="matrix(1, 0, 0, 1, -85.32544708251953, -76.89825439453125)"/><path fill="#F9CCC6" d="M962.93,858.196l-6.307-125.96c-1.044-9.278,7.166-17.669,17.776-18.166l0,0&#10;&#9;&#9;&#9;c10.499-0.491,18.927,6.961,18.354,16.229l3.205,46.304c0.592,7.758,0.224,15.582-1.098,23.335l-4.788,19.681&#10;&#9;&#9;&#9;c-3.494,12.363-7.758,24.314-7.706,36.938L962.93,858.196z" transform="matrix(1, 0, 0, 1, -85.32544708251953, -76.89825439453125)"/><path fill="#F9CCC6" d="M1130.902,864.01l-80.682-118.733c-6.45-8.461-4.283-20.628,4.689-26.342l0,0&#10;&#9;&#9;&#9;c8.88-5.654,20.691-2.604,25.721,6.644l30.436,43.21c5.146,7.213,9.493,14.963,12.967,23.114l7.562,21.4&#10;&#9;&#9;&#9;c4.326,13.683,5.793,29.645,13.373,41.83L1130.902,864.01z" transform="matrix(1, 0, 0, 1, -85.32544708251953, -76.89825439453125)"/><path fill="#343435" d="M1009.993,630.406L970.5,694.867c-13.453,21.958-20.102,47.408-19.107,73.142l1.89,48.943&#10;&#9;&#9;&#9;c0,0,122.707,38.916,187.851,0c0,0-36.802-76.142-49.492-90.101c0,0,8.179-58.623,4.093-94.754L1009.993,630.406z" transform="matrix(1, 0, 0, 1, -85.32544708251953, -76.89825439453125)"/><path fill="#F0536A" d="M1017.349,413.632c0,0,38.852-1.632,45.319,65.76c3.887,40.495,51.815,28.287,52.661,76.325&#10;&#9;&#9;&#9;c0.847,48.039-123.898,67.543-134.706,34.737c-10.808-32.807-1.832-104.196,5.735-121.166&#10;&#9;&#9;&#9;C993.927,452.32,975.011,413.67,1017.349,413.632z" transform="matrix(1, 0, 0, 1, -85.32544708251953, -76.89825439453125)"/><path fill="#464547" d="M1005.467,594.339l5.839-77.001c0.835-11.011-11.182-18.312-20.57-12.5l0,0&#10;&#9;&#9;&#9;c-6.282,3.89-10.328,10.547-10.887,17.915l-5.25,69.245c-0.646,8.524,5.739,15.958,14.264,16.604l0,0&#10;&#9;&#9;&#9;C997.387,609.249,1004.82,602.862,1005.467,594.339z" transform="matrix(1, 0, 0, 1, -85.32544708251953, -76.89825439453125)"/><path fill="#464547" d="M969.717,663.68l20.557,7.376l12.596-73.997c1.094-8.078-4.773-15.436-12.892-16.169l0,0&#10;&#9;&#9;&#9;c-8.295-0.749-15.474,5.718-15.593,14.046L969.717,663.68z" transform="matrix(1, 0, 0, 1, -85.32544708251953, -76.89825439453125)"/><path fill="#4D4B50" d="M996.933,503.249c12.01-7.198,34.991-18.966,54.207-17.027c0,0,27.86,36.972,34.579,96.115&#10;&#9;&#9;&#9;c0,0,16.991,27.765,13.113,50.607c0,0-57.827,41.454-93.137,0.025c0,0,20.436-27.944-16.997-64.304&#10;&#9;&#9;&#9;c-7.334-7.123-15.857-29.666,0-46.127c2.553-2.649,3.106-4.123,2.833-5.363C990.336,511.743,992.162,506.109,996.933,503.249z" transform="matrix(1, 0, 0, 1, -85.32544708251953, -76.89825439453125)"/><path fill="#F9CCC6" d="M1015.72,470.803c0,0,2.774,20.894,12.043,24.403c0,0-15.227,14.215-30.384,10.503&#10;&#9;&#9;&#9;c0,0-2.539-16.407-8.681-25.111L1015.72,470.803z" transform="matrix(1, 0, 0, 1, -85.32544708251953, -76.89825439453125)"/><path fill="#F9CCC6" d="M964.752,853.621c0,0-7.01,9.657-45.113,12.646c0,0-5.705,6.145,8.395,6.291s52.168,0.542,52.168,0.542&#10;&#9;&#9;&#9;l1.037-17.283L964.752,853.621z" transform="matrix(1, 0, 0, 1, -85.32544708251953, -76.89825439453125)"/><path fill="#F9CCC6" d="M1127.398,852.783c0,0-6.352,10.103-44.172,15.621c0,0-5.282,6.511,8.796,5.719&#10;&#9;&#9;&#9;c14.077-0.793,52.088-2.933,52.088-2.933l-0.116-17.314L1127.398,852.783z" transform="matrix(1, 0, 0, 1, -85.32544708251953, -76.89825439453125)"/><path fill="#F9CCC6" d="M955.381,568.608c0,0-20.783-5.302-30.645,4.282c0,0-5.802,2.646,8.797,2.665&#10;&#9;&#9;&#9;c0,0,1.328,10.738-21.701,10.263c0,0,9.964,27.446,41.731-1.702l7.689,0.002l-1.05-15.282L955.381,568.608z" transform="matrix(1, 0, 0, 1, -85.32544708251953, -76.89825439453125)"/><path fill="#F9CCC6" d="M991.387,670.964c0,0,4.288,21.017-5.762,30.402c0,0-2.923,5.666-2.235-8.916&#10;&#9;&#9;&#9;c0,0-10.661-1.847-11.302,21.179c0,0-26.932-11.282,3.721-41.6l0.371-7.682l15.213,1.789L991.387,670.964z" transform="matrix(1, 0, 0, 1, -85.32544708251953, -76.89825439453125)"/><path fill="#F9CCC6" d="M993.021,423.919c-9.765,2.366-18.13,10.212-19.384,19.653c0,0-0.624,14.882-9.463,18.195&#10;&#9;&#9;&#9;c0,0,2.464,2.155,5.61,2.168c0,0,9.003,39.299,36.853,16.168c14.531-3.522,23.263-18.954,19.503-34.469&#10;&#9;&#9;&#9;C1022.38,430.12,1007.552,420.397,993.021,423.919z" transform="matrix(1, 0, 0, 1, -85.32544708251953, -76.89825439453125)"/><path fill="#EE293D" d="M972.207,471.151c0.71,1.692,1.586,3.528,2.651,5.341c5.148-2.122,5.795-7.412,5.795-7.412&#10;&#9;&#9;&#9;C977.939,470.347,974.727,470.904,972.207,471.151z" transform="matrix(1, 0, 0, 1, -85.32544708251953, -76.89825439453125)"/><path fill="#FFFFFF" d="M1023.687,489.562l5.374,95.402l-34.887-81.728C994.174,503.236,1007.055,494.625,1023.687,489.562z" transform="matrix(1, 0, 0, 1, -85.32544708251953, -76.89825439453125)"/><path d="M 1013.3489990234375 509.17999267578125 L 1007.031982421875 511.3630065917969 L 1011.7319946289062 516.6019897460938 Z" fill="#EE293D" transform="matrix(1, 0, 0, 1, -85.32544708251953, -76.89825439453125)"/><path d="M 1011.9290161132812 514.14599609375 L 1027.762939453125 556.6669921875 L 1029.06103515625 584.9639892578125 L 1017.083984375 556.906982421875 L 1010.6729736328125 513.5360107421875 Z" fill="#EE293D" transform="matrix(1, 0, 0, 1, -85.32544708251953, -76.89825439453125)"/><path fill="#F9CCC6" d="M1023.619,489.581l-13.626,18.969l-15.819-5.313C994.174,503.236,1007.02,494.648,1023.619,489.581z" transform="matrix(1, 0, 0, 1, -85.32544708251953, -76.89825439453125)"/><path fill="#353338" d="M1029.061,584.964l3.621-65.161l-6.516-8.489l8.289-16.59c0,0-4.361-7.499-10.764-5.244L1029.061,584.964z&#10;&#9;&#9;&#9;" transform="matrix(1, 0, 0, 1, -85.32544708251953, -76.89825439453125)"/><path fill="#353338" d="M994.174,503.236c0,0-8.101-0.284-9.174,5.379l12.748,13.417l-1.478,8.967l32.79,53.965L994.174,503.236z" transform="matrix(1, 0, 0, 1, -85.32544708251953, -76.89825439453125)"/><path fill="#C8C6CC" d="M1009.993,508.55l8.916,3.78l7.222-20.11l-3.239-2.463C1022.892,489.756,1009.345,502.358,1009.993,508.55&#10;&#9;&#9;&#9;z" transform="matrix(1, 0, 0, 1, -85.32544708251953, -76.89825439453125)"/><path fill="#C8C6CC" d="M994.174,503.236c0,0,11.794,0.141,15.819,5.313l-3.326,7.416&#10;&#9;&#9;&#9;C1006.667,515.966,996.607,511.455,994.174,503.236z" transform="matrix(1, 0, 0, 1, -85.32544708251953, -76.89825439453125)"/><path fill="#F0536A" d="M970.033,439.333c0,0,9.201,0.841,25.219,1.626c0,0,10.314,46.283,28.435,48.602&#10;&#9;&#9;&#9;c0,0,35.065-55.729,2.444-74.376C1026.131,415.185,978.043,403.667,970.033,439.333z" transform="matrix(1, 0, 0, 1, -85.32544708251953, -76.89825439453125)"/><path fill="#4D4B50" d="M980.846,862.359c-8.483-1.479-28.054,1.472-41.181,1.305c-5.469,1.059-12.06,1.978-20.026,2.603&#10;&#9;&#9;&#9;c0,0-5.705,6.145,8.395,6.291s52.168,0.542,52.168,0.542L980.846,862.359z" transform="matrix(1, 0, 0, 1, -85.32544708251953, -76.89825439453125)"/><path fill="#4D4B50" d="M1104.77,864.004c-5.701,1.591-12.766,3.119-21.543,4.4c0,0-5.282,6.511,8.795,5.719&#10;&#9;&#9;&#9;c14.078-0.793,52.089-2.933,52.089-2.933l-0.059-8.788C1133.363,862.189,1115.748,864.67,1104.77,864.004z" transform="matrix(1, 0, 0, 1, -85.32544708251953, -76.89825439453125)"/><path fill="#464547" d="M1011.668,566.932l22.671-73.818c3.242-10.556,17.095-12.968,23.714-4.129l0,0&#10;&#9;&#9;&#9;c4.429,5.915,5.766,13.589,3.596,20.652l-20.388,66.384c-2.51,8.172-11.169,12.762-19.341,10.252l0,0&#10;&#9;&#9;&#9;C1013.748,583.763,1009.158,575.104,1011.668,566.932z" transform="matrix(1, 0, 0, 1, -85.32544708251953, -76.89825439453125)"/><path fill="#464547" d="M953.68,590.455l-0.397-21.64l70.427-9.556c8.109-0.824,15.268,5.284,15.73,13.423l0,0&#10;&#9;&#9;&#9;c0.473,8.314-6.229,15.274-14.557,15.116L953.68,590.455z" transform="matrix(1, 0, 0, 1, -85.32544708251953, -76.89825439453125)"/><path fill="#F0536A" d="M995.252,440.96c0,0-7.696,32.684,6.832,38.374c0,0-2.804-9.463-1.959-18.333&#10;&#9;&#9;&#9;c0,0,3.021,10.001,6.905,16.833c3.236,5.691,3.643,23.209,3.643,23.209s14.129-15.485,7.378-37.075S995.252,440.96,995.252,440.96&#10;&#9;&#9;&#9;z" transform="matrix(1, 0, 0, 1, -85.32544708251953, -76.89825439453125)"/><path fill="#FCB43D" d="M932.283,510.805c-0.269-0.006-0.535,0.001-0.802,0.003l0.546-24.447&#10;&#9;&#9;&#9;c-45.808-0.593-83.637,35.833-84.663,81.734c-0.148,6.665,0.492,13.163,1.828,19.41l11.588,0.259&#10;&#9;&#9;&#9;c-0.088-0.977-0.128-1.967-0.105-2.971c0.325-14.524,12.363-26.036,26.888-25.711c14.525,0.324,26.036,12.362,25.712,26.887&#10;&#9;&#9;&#9;c-0.022,1.004-0.106,1.992-0.238,2.964l16.689,0.373l0.58-25.939c0.267,0.014,0.532,0.032,0.802,0.038&#10;&#9;&#9;&#9;c14.524,0.324,26.562-11.187,26.887-25.712C958.319,523.168,946.809,511.13,932.283,510.805z" transform="matrix(1, 0, 0, 1, -85.32544708251953, -76.89825439453125)"/><path opacity="0.65" fill="#E99E2E" d="M929.726,589.306l0.58-25.94c0.267,0.015,0.532,0.032,0.801,0.039&#10;&#9;&#9;&#9;c0.028,0,0.056-0.001,0.084,0c-35.941-9.909-54.698-36.911-61.876-49.903c-13.22,14.419-21.479,33.499-21.95,54.594&#10;&#9;&#9;&#9;c-0.148,6.665,0.492,13.163,1.827,19.41l11.589,0.259c-0.088-0.977-0.128-1.967-0.104-2.971&#10;&#9;&#9;&#9;c0.324-14.524,12.362-26.036,26.888-25.711c14.524,0.324,26.035,12.362,25.71,26.887c-0.021,1.004-0.105,1.991-0.237,2.964&#10;&#9;&#9;&#9;L929.726,589.306z" transform="matrix(1, 0, 0, 1, -85.32544708251953, -76.89825439453125)"/><path d="M 884.959992 520.752014 A 7.806 15.126 0 0 1 877.153992 535.878015 A 7.806 15.126 0 0 1 869.347991 520.752014 A 7.806 15.126 0 0 1 877.153992 505.626014 A 7.806 15.126 0 0 1 884.959992 520.752014 Z" transform="matrix(0.7502999901771545, 0.6611000299453735, -0.6611000299453735, 0.7502999901771545, 477.9714126586914, -526.7516479492188)" fill="#FAE7E3"/></svg>